<mxfile host="app.diagrams.net" modified="2023-03-28T02:27:44.783Z" agent="Mozilla/5.0 (Windows NT 10.0; Win64; x64) AppleWebKit/537.36 (KHTML, like Gecko) Chrome/111.0.0.0 Safari/537.36" etag="jXdqz4J_duTwEcgrXeox" version="21.1.1" type="github">
  <diagram name="Page-1" id="7yyEkjxY7oO5vYqgF1pw">
    <mxGraphModel dx="1588" dy="876" grid="1" gridSize="10" guides="1" tooltips="1" connect="1" arrows="1" fold="1" page="1" pageScale="1" pageWidth="850" pageHeight="1100" math="0" shadow="0">
      <root>
        <mxCell id="0" />
        <mxCell id="1" parent="0" />
        <mxCell id="HHwhpNUcEL4YKQArkE9e-1" value="PROMOTION" style="whiteSpace=wrap;html=1;align=center;fillColor=#C4C4C4;strokeColor=#36393d;" parent="1" vertex="1">
          <mxGeometry x="350" y="330" width="100" height="40" as="geometry" />
        </mxCell>
        <mxCell id="HHwhpNUcEL4YKQArkE9e-2" value="Promotion Code" style="ellipse;whiteSpace=wrap;html=1;align=center;fontStyle=4;" parent="1" vertex="1">
          <mxGeometry x="360" y="210" width="100" height="40" as="geometry" />
        </mxCell>
        <mxCell id="HHwhpNUcEL4YKQArkE9e-3" value="Promotion description" style="ellipse;whiteSpace=wrap;html=1;align=center;" parent="1" vertex="1">
          <mxGeometry x="140" y="310" width="100" height="40" as="geometry" />
        </mxCell>
        <mxCell id="HHwhpNUcEL4YKQArkE9e-4" value="Promotion start date" style="ellipse;whiteSpace=wrap;html=1;align=center;" parent="1" vertex="1">
          <mxGeometry x="330" y="425" width="110" height="40" as="geometry" />
        </mxCell>
        <mxCell id="HHwhpNUcEL4YKQArkE9e-5" value="Promotion end date" style="ellipse;whiteSpace=wrap;html=1;align=center;" parent="1" vertex="1">
          <mxGeometry x="520" y="415" width="110" height="50" as="geometry" />
        </mxCell>
        <mxCell id="HHwhpNUcEL4YKQArkE9e-6" value="Discount percentage" style="ellipse;whiteSpace=wrap;html=1;align=center;fontStyle=0;" parent="1" vertex="1">
          <mxGeometry x="220" y="220" width="100" height="40" as="geometry" />
        </mxCell>
        <mxCell id="HHwhpNUcEL4YKQArkE9e-7" value="" style="endArrow=none;html=1;rounded=0;entryX=0;entryY=1;entryDx=0;entryDy=0;" parent="1" target="HHwhpNUcEL4YKQArkE9e-15" edge="1">
          <mxGeometry relative="1" as="geometry">
            <mxPoint x="450" y="330" as="sourcePoint" />
            <mxPoint x="521" y="325" as="targetPoint" />
          </mxGeometry>
        </mxCell>
        <mxCell id="HHwhpNUcEL4YKQArkE9e-8" value="" style="endArrow=none;html=1;rounded=0;entryX=0.5;entryY=0;entryDx=0;entryDy=0;exitX=0.5;exitY=1;exitDx=0;exitDy=0;" parent="1" source="HHwhpNUcEL4YKQArkE9e-1" target="HHwhpNUcEL4YKQArkE9e-5" edge="1">
          <mxGeometry relative="1" as="geometry">
            <mxPoint x="420" y="329.5" as="sourcePoint" />
            <mxPoint x="480" y="300" as="targetPoint" />
          </mxGeometry>
        </mxCell>
        <mxCell id="HHwhpNUcEL4YKQArkE9e-9" value="" style="endArrow=none;html=1;rounded=0;entryX=0.5;entryY=1;entryDx=0;entryDy=0;" parent="1" target="HHwhpNUcEL4YKQArkE9e-2" edge="1">
          <mxGeometry relative="1" as="geometry">
            <mxPoint x="400" y="329.5" as="sourcePoint" />
            <mxPoint x="560" y="329.5" as="targetPoint" />
          </mxGeometry>
        </mxCell>
        <mxCell id="HHwhpNUcEL4YKQArkE9e-10" value="" style="endArrow=none;html=1;rounded=0;exitX=1;exitY=1;exitDx=0;exitDy=0;" parent="1" source="HHwhpNUcEL4YKQArkE9e-6" edge="1">
          <mxGeometry relative="1" as="geometry">
            <mxPoint x="210" y="329.5" as="sourcePoint" />
            <mxPoint x="370" y="329.5" as="targetPoint" />
          </mxGeometry>
        </mxCell>
        <mxCell id="HHwhpNUcEL4YKQArkE9e-11" value="" style="endArrow=none;html=1;rounded=0;exitX=1;exitY=0.5;exitDx=0;exitDy=0;" parent="1" source="HHwhpNUcEL4YKQArkE9e-3" edge="1">
          <mxGeometry relative="1" as="geometry">
            <mxPoint x="190" y="339.5" as="sourcePoint" />
            <mxPoint x="350" y="339.5" as="targetPoint" />
          </mxGeometry>
        </mxCell>
        <mxCell id="HHwhpNUcEL4YKQArkE9e-12" value="" style="endArrow=none;html=1;rounded=0;exitX=0.92;exitY=0.225;exitDx=0;exitDy=0;exitPerimeter=0;" parent="1" source="HHwhpNUcEL4YKQArkE9e-4" edge="1">
          <mxGeometry relative="1" as="geometry">
            <mxPoint x="200" y="370" as="sourcePoint" />
            <mxPoint x="360" y="370" as="targetPoint" />
          </mxGeometry>
        </mxCell>
        <mxCell id="HHwhpNUcEL4YKQArkE9e-13" value="PAYMENT METHOD" style="whiteSpace=wrap;html=1;align=center;fillColor=#C4C4C4;strokeColor=#36393d;" parent="1" vertex="1">
          <mxGeometry x="600" y="640" width="100" height="40" as="geometry" />
        </mxCell>
        <mxCell id="HHwhpNUcEL4YKQArkE9e-14" value="has" style="shape=rhombus;perimeter=rhombusPerimeter;whiteSpace=wrap;html=1;align=center;" parent="1" vertex="1">
          <mxGeometry x="150" y="390" width="120" height="60" as="geometry" />
        </mxCell>
        <mxCell id="HHwhpNUcEL4YKQArkE9e-15" value="Product Code" style="ellipse;shape=doubleEllipse;margin=3;whiteSpace=wrap;html=1;align=center;" parent="1" vertex="1">
          <mxGeometry x="475" y="220" width="100" height="40" as="geometry" />
        </mxCell>
        <mxCell id="HHwhpNUcEL4YKQArkE9e-16" value="" style="endArrow=none;html=1;rounded=0;exitX=1;exitY=0;exitDx=0;exitDy=0;entryX=0;entryY=0.75;entryDx=0;entryDy=0;" parent="1" source="HHwhpNUcEL4YKQArkE9e-14" target="HHwhpNUcEL4YKQArkE9e-1" edge="1">
          <mxGeometry relative="1" as="geometry">
            <mxPoint x="473" y="436" as="sourcePoint" />
            <mxPoint x="430" y="370" as="targetPoint" />
          </mxGeometry>
        </mxCell>
        <mxCell id="HHwhpNUcEL4YKQArkE9e-20" value="&lt;u&gt;Payment Type&lt;/u&gt;" style="ellipse;whiteSpace=wrap;html=1;align=center;" parent="1" vertex="1">
          <mxGeometry x="570" y="540" width="100" height="40" as="geometry" />
        </mxCell>
        <mxCell id="HHwhpNUcEL4YKQArkE9e-21" value="&lt;span&gt;Billing address&lt;/span&gt;" style="ellipse;whiteSpace=wrap;html=1;align=center;fontStyle=0" parent="1" vertex="1">
          <mxGeometry x="690" y="540" width="100" height="40" as="geometry" />
        </mxCell>
        <mxCell id="HHwhpNUcEL4YKQArkE9e-22" value="Name on card" style="ellipse;whiteSpace=wrap;html=1;align=center;fontStyle=0;" parent="1" vertex="1">
          <mxGeometry x="780" y="600" width="100" height="40" as="geometry" />
        </mxCell>
        <mxCell id="HHwhpNUcEL4YKQArkE9e-23" value="Expiration date" style="ellipse;whiteSpace=wrap;html=1;align=center;fontStyle=0;" parent="1" vertex="1">
          <mxGeometry x="710" y="720" width="100" height="40" as="geometry" />
        </mxCell>
        <mxCell id="HHwhpNUcEL4YKQArkE9e-24" value="" style="endArrow=none;html=1;rounded=0;entryX=0.5;entryY=1;entryDx=0;entryDy=0;exitX=0.25;exitY=0;exitDx=0;exitDy=0;" parent="1" source="HHwhpNUcEL4YKQArkE9e-13" target="HHwhpNUcEL4YKQArkE9e-20" edge="1">
          <mxGeometry relative="1" as="geometry">
            <mxPoint x="570" y="500" as="sourcePoint" />
            <mxPoint x="740" y="499.5" as="targetPoint" />
          </mxGeometry>
        </mxCell>
        <mxCell id="HHwhpNUcEL4YKQArkE9e-25" value="" style="endArrow=none;html=1;rounded=0;entryX=0.292;entryY=0.954;entryDx=0;entryDy=0;exitX=0.75;exitY=0;exitDx=0;exitDy=0;entryPerimeter=0;" parent="1" source="HHwhpNUcEL4YKQArkE9e-13" target="HHwhpNUcEL4YKQArkE9e-21" edge="1">
          <mxGeometry relative="1" as="geometry">
            <mxPoint x="620" y="499.5" as="sourcePoint" />
            <mxPoint x="780" y="499.5" as="targetPoint" />
          </mxGeometry>
        </mxCell>
        <mxCell id="HHwhpNUcEL4YKQArkE9e-26" value="" style="endArrow=none;html=1;rounded=0;entryX=0;entryY=0.5;entryDx=0;entryDy=0;exitX=1;exitY=0.25;exitDx=0;exitDy=0;" parent="1" source="HHwhpNUcEL4YKQArkE9e-13" target="HHwhpNUcEL4YKQArkE9e-22" edge="1">
          <mxGeometry relative="1" as="geometry">
            <mxPoint x="630" y="519" as="sourcePoint" />
            <mxPoint x="790" y="519" as="targetPoint" />
          </mxGeometry>
        </mxCell>
        <mxCell id="HHwhpNUcEL4YKQArkE9e-28" value="" style="endArrow=none;html=1;rounded=0;entryX=0.27;entryY=0.05;entryDx=0;entryDy=0;entryPerimeter=0;exitX=0.75;exitY=1;exitDx=0;exitDy=0;" parent="1" source="HHwhpNUcEL4YKQArkE9e-13" target="HHwhpNUcEL4YKQArkE9e-23" edge="1">
          <mxGeometry relative="1" as="geometry">
            <mxPoint x="590" y="540" as="sourcePoint" />
            <mxPoint x="750" y="540" as="targetPoint" />
          </mxGeometry>
        </mxCell>
        <mxCell id="HHwhpNUcEL4YKQArkE9e-29" value="Promotion" style="swimlane;html=1;fontStyle=0;childLayout=stackLayout;horizontal=1;startSize=26;fillColor=#e0e0e0;horizontalStack=0;resizeParent=1;resizeLast=0;collapsible=1;marginBottom=0;swimlaneFillColor=#ffffff;align=center;rounded=0;shadow=0;comic=0;labelBackgroundColor=none;strokeWidth=1;fontFamily=Verdana;fontSize=14" parent="1" vertex="1">
          <mxGeometry x="110" y="510" width="220" height="220" as="geometry" />
        </mxCell>
        <mxCell id="HHwhpNUcEL4YKQArkE9e-30" value="Promotion Code&lt;span style=&quot;font-weight: normal;&quot;&gt;&amp;nbsp;(int)&lt;/span&gt;" style="shape=partialRectangle;top=0;left=0;right=0;bottom=1;html=1;align=left;verticalAlign=middle;fillColor=none;spacingLeft=34;spacingRight=4;whiteSpace=wrap;overflow=hidden;rotatable=0;points=[[0,0.5],[1,0.5]];portConstraint=eastwest;dropTarget=0;fontStyle=5;" parent="HHwhpNUcEL4YKQArkE9e-29" vertex="1">
          <mxGeometry y="26" width="220" height="30" as="geometry" />
        </mxCell>
        <mxCell id="HHwhpNUcEL4YKQArkE9e-31" value="PK" style="shape=partialRectangle;top=0;left=0;bottom=0;html=1;fillColor=none;align=left;verticalAlign=middle;spacingLeft=4;spacingRight=4;whiteSpace=wrap;overflow=hidden;rotatable=0;points=[];portConstraint=eastwest;part=1;" parent="HHwhpNUcEL4YKQArkE9e-30" vertex="1" connectable="0">
          <mxGeometry width="30" height="30" as="geometry" />
        </mxCell>
        <mxCell id="HHwhpNUcEL4YKQArkE9e-32" value="Product Code (int)" style="shape=partialRectangle;top=0;left=0;right=0;bottom=0;html=1;align=left;verticalAlign=top;fillColor=none;spacingLeft=34;spacingRight=4;whiteSpace=wrap;overflow=hidden;rotatable=0;points=[[0,0.5],[1,0.5]];portConstraint=eastwest;dropTarget=0;" parent="HHwhpNUcEL4YKQArkE9e-29" vertex="1">
          <mxGeometry y="56" width="220" height="26" as="geometry" />
        </mxCell>
        <mxCell id="HHwhpNUcEL4YKQArkE9e-33" value="FK" style="shape=partialRectangle;top=0;left=0;bottom=0;html=1;fillColor=none;align=left;verticalAlign=top;spacingLeft=4;spacingRight=4;whiteSpace=wrap;overflow=hidden;rotatable=0;points=[];portConstraint=eastwest;part=1;" parent="HHwhpNUcEL4YKQArkE9e-32" vertex="1" connectable="0">
          <mxGeometry width="30" height="26" as="geometry" />
        </mxCell>
        <mxCell id="HHwhpNUcEL4YKQArkE9e-34" value="Discount percentage (int)" style="shape=partialRectangle;top=0;left=0;right=0;bottom=0;html=1;align=left;verticalAlign=top;fillColor=none;spacingLeft=34;spacingRight=4;whiteSpace=wrap;overflow=hidden;rotatable=0;points=[[0,0.5],[1,0.5]];portConstraint=eastwest;dropTarget=0;" parent="HHwhpNUcEL4YKQArkE9e-29" vertex="1">
          <mxGeometry y="82" width="220" height="26" as="geometry" />
        </mxCell>
        <mxCell id="HHwhpNUcEL4YKQArkE9e-35" value="" style="shape=partialRectangle;top=0;left=0;bottom=0;html=1;fillColor=none;align=left;verticalAlign=top;spacingLeft=4;spacingRight=4;whiteSpace=wrap;overflow=hidden;rotatable=0;points=[];portConstraint=eastwest;part=1;" parent="HHwhpNUcEL4YKQArkE9e-34" vertex="1" connectable="0">
          <mxGeometry width="30" height="26" as="geometry" />
        </mxCell>
        <mxCell id="HHwhpNUcEL4YKQArkE9e-36" value="Promotion description (string)" style="shape=partialRectangle;top=0;left=0;right=0;bottom=0;html=1;align=left;verticalAlign=top;fillColor=none;spacingLeft=34;spacingRight=4;whiteSpace=wrap;overflow=hidden;rotatable=0;points=[[0,0.5],[1,0.5]];portConstraint=eastwest;dropTarget=0;" parent="HHwhpNUcEL4YKQArkE9e-29" vertex="1">
          <mxGeometry y="108" width="220" height="26" as="geometry" />
        </mxCell>
        <mxCell id="HHwhpNUcEL4YKQArkE9e-37" value="" style="shape=partialRectangle;top=0;left=0;bottom=0;html=1;fillColor=none;align=left;verticalAlign=top;spacingLeft=4;spacingRight=4;whiteSpace=wrap;overflow=hidden;rotatable=0;points=[];portConstraint=eastwest;part=1;" parent="HHwhpNUcEL4YKQArkE9e-36" vertex="1" connectable="0">
          <mxGeometry width="30" height="26" as="geometry" />
        </mxCell>
        <mxCell id="HHwhpNUcEL4YKQArkE9e-38" value="Promotion start date (datetime)" style="shape=partialRectangle;top=0;left=0;right=0;bottom=0;html=1;align=left;verticalAlign=top;fillColor=none;spacingLeft=34;spacingRight=4;whiteSpace=wrap;overflow=hidden;rotatable=0;points=[[0,0.5],[1,0.5]];portConstraint=eastwest;dropTarget=0;" parent="HHwhpNUcEL4YKQArkE9e-29" vertex="1">
          <mxGeometry y="134" width="220" height="26" as="geometry" />
        </mxCell>
        <mxCell id="HHwhpNUcEL4YKQArkE9e-39" value="" style="shape=partialRectangle;top=0;left=0;bottom=0;html=1;fillColor=none;align=left;verticalAlign=top;spacingLeft=4;spacingRight=4;whiteSpace=wrap;overflow=hidden;rotatable=0;points=[];portConstraint=eastwest;part=1;" parent="HHwhpNUcEL4YKQArkE9e-38" vertex="1" connectable="0">
          <mxGeometry width="30" height="26" as="geometry" />
        </mxCell>
        <mxCell id="HHwhpNUcEL4YKQArkE9e-40" value="Promotion end date (datetime)" style="shape=partialRectangle;top=0;left=0;right=0;bottom=0;html=1;align=left;verticalAlign=top;fillColor=none;spacingLeft=34;spacingRight=4;whiteSpace=wrap;overflow=hidden;rotatable=0;points=[[0,0.5],[1,0.5]];portConstraint=eastwest;dropTarget=0;" parent="HHwhpNUcEL4YKQArkE9e-29" vertex="1">
          <mxGeometry y="160" width="220" height="30" as="geometry" />
        </mxCell>
        <mxCell id="HHwhpNUcEL4YKQArkE9e-41" value="" style="shape=partialRectangle;top=0;left=0;bottom=0;html=1;fillColor=none;align=left;verticalAlign=top;spacingLeft=4;spacingRight=4;whiteSpace=wrap;overflow=hidden;rotatable=0;points=[];portConstraint=eastwest;part=1;" parent="HHwhpNUcEL4YKQArkE9e-40" vertex="1" connectable="0">
          <mxGeometry width="30" height="29.999999999999996" as="geometry" />
        </mxCell>
        <mxCell id="HHwhpNUcEL4YKQArkE9e-42" value="Promotion active (boolean)" style="shape=partialRectangle;top=0;left=0;right=0;bottom=0;html=1;align=left;verticalAlign=top;fillColor=none;spacingLeft=34;spacingRight=4;whiteSpace=wrap;overflow=hidden;rotatable=0;points=[[0,0.5],[1,0.5]];portConstraint=eastwest;dropTarget=0;" parent="HHwhpNUcEL4YKQArkE9e-29" vertex="1">
          <mxGeometry y="190" width="220" height="30" as="geometry" />
        </mxCell>
        <mxCell id="HHwhpNUcEL4YKQArkE9e-43" value="" style="shape=partialRectangle;top=0;left=0;bottom=0;html=1;fillColor=none;align=left;verticalAlign=top;spacingLeft=4;spacingRight=4;whiteSpace=wrap;overflow=hidden;rotatable=0;points=[];portConstraint=eastwest;part=1;" parent="HHwhpNUcEL4YKQArkE9e-42" vertex="1" connectable="0">
          <mxGeometry width="30" height="29.999999999999996" as="geometry" />
        </mxCell>
        <mxCell id="HHwhpNUcEL4YKQArkE9e-50" value="" style="endArrow=none;html=1;rounded=0;exitX=1;exitY=0.5;exitDx=0;exitDy=0;entryX=0;entryY=0.75;entryDx=0;entryDy=0;" parent="1" source="HHwhpNUcEL4YKQArkE9e-70" target="HHwhpNUcEL4YKQArkE9e-13" edge="1">
          <mxGeometry relative="1" as="geometry">
            <mxPoint x="232" y="399" as="sourcePoint" />
            <mxPoint x="290" y="370" as="targetPoint" />
          </mxGeometry>
        </mxCell>
        <mxCell id="HHwhpNUcEL4YKQArkE9e-68" value="Credit card number" style="ellipse;whiteSpace=wrap;html=1;align=center;fontStyle=0;" parent="1" vertex="1">
          <mxGeometry x="430" y="690" width="100" height="40" as="geometry" />
        </mxCell>
        <mxCell id="HHwhpNUcEL4YKQArkE9e-69" value="" style="endArrow=none;html=1;rounded=0;entryX=0.5;entryY=0;entryDx=0;entryDy=0;exitX=0;exitY=1;exitDx=0;exitDy=0;" parent="1" source="HHwhpNUcEL4YKQArkE9e-13" target="HHwhpNUcEL4YKQArkE9e-68" edge="1">
          <mxGeometry relative="1" as="geometry">
            <mxPoint x="563" y="540" as="sourcePoint" />
            <mxPoint x="640" y="592" as="targetPoint" />
          </mxGeometry>
        </mxCell>
        <mxCell id="HHwhpNUcEL4YKQArkE9e-70" value="Payment method fees" style="ellipse;whiteSpace=wrap;html=1;align=center;fontStyle=0;" parent="1" vertex="1">
          <mxGeometry x="380" y="620" width="110" height="50" as="geometry" />
        </mxCell>
        <mxCell id="HHwhpNUcEL4YKQArkE9e-71" value="CVV" style="ellipse;whiteSpace=wrap;html=1;align=center;fontStyle=0;" parent="1" vertex="1">
          <mxGeometry x="590" y="750" width="100" height="40" as="geometry" />
        </mxCell>
        <mxCell id="HHwhpNUcEL4YKQArkE9e-72" value="" style="endArrow=none;html=1;rounded=0;entryX=0.5;entryY=0;entryDx=0;entryDy=0;exitX=0.404;exitY=1.013;exitDx=0;exitDy=0;exitPerimeter=0;" parent="1" source="HHwhpNUcEL4YKQArkE9e-13" target="HHwhpNUcEL4YKQArkE9e-71" edge="1">
          <mxGeometry relative="1" as="geometry">
            <mxPoint x="580" y="540" as="sourcePoint" />
            <mxPoint x="530" y="620" as="targetPoint" />
          </mxGeometry>
        </mxCell>
        <mxCell id="HHwhpNUcEL4YKQArkE9e-108" value="Promotion end date" style="ellipse;whiteSpace=wrap;html=1;align=center;" parent="1" vertex="1">
          <mxGeometry x="540" y="320" width="120" height="50" as="geometry" />
        </mxCell>
        <mxCell id="HHwhpNUcEL4YKQArkE9e-111" value="" style="endArrow=none;html=1;rounded=0;entryX=0;entryY=0.5;entryDx=0;entryDy=0;exitX=1;exitY=0.5;exitDx=0;exitDy=0;" parent="1" source="HHwhpNUcEL4YKQArkE9e-1" target="HHwhpNUcEL4YKQArkE9e-108" edge="1">
          <mxGeometry relative="1" as="geometry">
            <mxPoint x="495" y="340" as="sourcePoint" />
            <mxPoint x="490" y="400" as="targetPoint" />
          </mxGeometry>
        </mxCell>
        <mxCell id="HHwhpNUcEL4YKQArkE9e-112" value="PRODUCT" style="whiteSpace=wrap;html=1;align=center;fillColor=#C4C4C4;strokeColor=#36393d;" parent="1" vertex="1">
          <mxGeometry x="20" y="360" width="100" height="40" as="geometry" />
        </mxCell>
        <mxCell id="HHwhpNUcEL4YKQArkE9e-114" value="" style="endArrow=none;html=1;rounded=0;exitX=1;exitY=0.5;exitDx=0;exitDy=0;" parent="1" source="HHwhpNUcEL4YKQArkE9e-112" target="HHwhpNUcEL4YKQArkE9e-14" edge="1">
          <mxGeometry relative="1" as="geometry">
            <mxPoint x="150" y="395" as="sourcePoint" />
            <mxPoint x="260" y="350" as="targetPoint" />
          </mxGeometry>
        </mxCell>
        <mxCell id="HHwhpNUcEL4YKQArkE9e-115" value="1" style="resizable=0;html=1;whiteSpace=wrap;align=right;verticalAlign=bottom;" parent="1" connectable="0" vertex="1">
          <mxGeometry x="425.04241376202435" y="465.004704178175" as="geometry">
            <mxPoint x="-253" y="-73" as="offset" />
          </mxGeometry>
        </mxCell>
        <mxCell id="HHwhpNUcEL4YKQArkE9e-116" value="1" style="resizable=0;html=1;whiteSpace=wrap;align=right;verticalAlign=bottom;" parent="1" connectable="0" vertex="1">
          <mxGeometry x="400.00241376202433" y="430.004704178175" as="geometry">
            <mxPoint x="-144" y="-39" as="offset" />
          </mxGeometry>
        </mxCell>
        <mxCell id="HHwhpNUcEL4YKQArkE9e-118" value="Payment Method" style="swimlane;html=1;fontStyle=0;childLayout=stackLayout;horizontal=1;startSize=26;fillColor=#e0e0e0;horizontalStack=0;resizeParent=1;resizeLast=0;collapsible=1;marginBottom=0;swimlaneFillColor=#ffffff;align=center;rounded=0;shadow=0;comic=0;labelBackgroundColor=none;strokeWidth=1;fontFamily=Verdana;fontSize=14" parent="1" vertex="1">
          <mxGeometry x="590" y="870" width="200" height="234" as="geometry" />
        </mxCell>
        <mxCell id="HHwhpNUcEL4YKQArkE9e-119" value="Payment Type (string)" style="shape=partialRectangle;top=0;left=0;right=0;bottom=1;html=1;align=left;verticalAlign=middle;fillColor=none;spacingLeft=34;spacingRight=4;whiteSpace=wrap;overflow=hidden;rotatable=0;points=[[0,0.5],[1,0.5]];portConstraint=eastwest;dropTarget=0;fontStyle=5;" parent="HHwhpNUcEL4YKQArkE9e-118" vertex="1">
          <mxGeometry y="26" width="200" height="30" as="geometry" />
        </mxCell>
        <mxCell id="HHwhpNUcEL4YKQArkE9e-120" value="PK" style="shape=partialRectangle;top=0;left=0;bottom=0;html=1;fillColor=none;align=left;verticalAlign=middle;spacingLeft=4;spacingRight=4;whiteSpace=wrap;overflow=hidden;rotatable=0;points=[];portConstraint=eastwest;part=1;" parent="HHwhpNUcEL4YKQArkE9e-119" vertex="1" connectable="0">
          <mxGeometry width="30" height="30" as="geometry" />
        </mxCell>
        <mxCell id="HHwhpNUcEL4YKQArkE9e-123" value="Payment method fees (int)" style="shape=partialRectangle;top=0;left=0;right=0;bottom=0;html=1;align=left;verticalAlign=top;fillColor=none;spacingLeft=34;spacingRight=4;whiteSpace=wrap;overflow=hidden;rotatable=0;points=[[0,0.5],[1,0.5]];portConstraint=eastwest;dropTarget=0;" parent="HHwhpNUcEL4YKQArkE9e-118" vertex="1">
          <mxGeometry y="56" width="200" height="26" as="geometry" />
        </mxCell>
        <mxCell id="HHwhpNUcEL4YKQArkE9e-124" value="" style="shape=partialRectangle;top=0;left=0;bottom=0;html=1;fillColor=none;align=left;verticalAlign=top;spacingLeft=4;spacingRight=4;whiteSpace=wrap;overflow=hidden;rotatable=0;points=[];portConstraint=eastwest;part=1;" parent="HHwhpNUcEL4YKQArkE9e-123" vertex="1" connectable="0">
          <mxGeometry width="30" height="26" as="geometry" />
        </mxCell>
        <mxCell id="HHwhpNUcEL4YKQArkE9e-125" value="Credit card number (int)" style="shape=partialRectangle;top=0;left=0;right=0;bottom=0;html=1;align=left;verticalAlign=top;fillColor=none;spacingLeft=34;spacingRight=4;whiteSpace=wrap;overflow=hidden;rotatable=0;points=[[0,0.5],[1,0.5]];portConstraint=eastwest;dropTarget=0;" parent="HHwhpNUcEL4YKQArkE9e-118" vertex="1">
          <mxGeometry y="82" width="200" height="26" as="geometry" />
        </mxCell>
        <mxCell id="HHwhpNUcEL4YKQArkE9e-126" value="" style="shape=partialRectangle;top=0;left=0;bottom=0;html=1;fillColor=none;align=left;verticalAlign=top;spacingLeft=4;spacingRight=4;whiteSpace=wrap;overflow=hidden;rotatable=0;points=[];portConstraint=eastwest;part=1;" parent="HHwhpNUcEL4YKQArkE9e-125" vertex="1" connectable="0">
          <mxGeometry width="30" height="26" as="geometry" />
        </mxCell>
        <mxCell id="HHwhpNUcEL4YKQArkE9e-127" value="CVV (int)" style="shape=partialRectangle;top=0;left=0;right=0;bottom=0;html=1;align=left;verticalAlign=top;fillColor=none;spacingLeft=34;spacingRight=4;whiteSpace=wrap;overflow=hidden;rotatable=0;points=[[0,0.5],[1,0.5]];portConstraint=eastwest;dropTarget=0;" parent="HHwhpNUcEL4YKQArkE9e-118" vertex="1">
          <mxGeometry y="108" width="200" height="26" as="geometry" />
        </mxCell>
        <mxCell id="HHwhpNUcEL4YKQArkE9e-128" value="" style="shape=partialRectangle;top=0;left=0;bottom=0;html=1;fillColor=none;align=left;verticalAlign=top;spacingLeft=4;spacingRight=4;whiteSpace=wrap;overflow=hidden;rotatable=0;points=[];portConstraint=eastwest;part=1;" parent="HHwhpNUcEL4YKQArkE9e-127" vertex="1" connectable="0">
          <mxGeometry width="30" height="26" as="geometry" />
        </mxCell>
        <mxCell id="HHwhpNUcEL4YKQArkE9e-129" value="Expiration date (datetime)" style="shape=partialRectangle;top=0;left=0;right=0;bottom=0;html=1;align=left;verticalAlign=top;fillColor=none;spacingLeft=34;spacingRight=4;whiteSpace=wrap;overflow=hidden;rotatable=0;points=[[0,0.5],[1,0.5]];portConstraint=eastwest;dropTarget=0;" parent="HHwhpNUcEL4YKQArkE9e-118" vertex="1">
          <mxGeometry y="134" width="200" height="30" as="geometry" />
        </mxCell>
        <mxCell id="HHwhpNUcEL4YKQArkE9e-130" value="" style="shape=partialRectangle;top=0;left=0;bottom=0;html=1;fillColor=none;align=left;verticalAlign=top;spacingLeft=4;spacingRight=4;whiteSpace=wrap;overflow=hidden;rotatable=0;points=[];portConstraint=eastwest;part=1;" parent="HHwhpNUcEL4YKQArkE9e-129" vertex="1" connectable="0">
          <mxGeometry width="30" height="29.999999999999996" as="geometry" />
        </mxCell>
        <mxCell id="HHwhpNUcEL4YKQArkE9e-131" value="Billing Address (string)" style="shape=partialRectangle;top=0;left=0;right=0;bottom=0;html=1;align=left;verticalAlign=top;fillColor=none;spacingLeft=34;spacingRight=4;whiteSpace=wrap;overflow=hidden;rotatable=0;points=[[0,0.5],[1,0.5]];portConstraint=eastwest;dropTarget=0;" parent="HHwhpNUcEL4YKQArkE9e-118" vertex="1">
          <mxGeometry y="164" width="200" height="30" as="geometry" />
        </mxCell>
        <mxCell id="HHwhpNUcEL4YKQArkE9e-132" value="" style="shape=partialRectangle;top=0;left=0;bottom=0;html=1;fillColor=none;align=left;verticalAlign=top;spacingLeft=4;spacingRight=4;whiteSpace=wrap;overflow=hidden;rotatable=0;points=[];portConstraint=eastwest;part=1;" parent="HHwhpNUcEL4YKQArkE9e-131" vertex="1" connectable="0">
          <mxGeometry width="30" height="29.999999999999996" as="geometry" />
        </mxCell>
        <mxCell id="HHwhpNUcEL4YKQArkE9e-133" value="Name on card (string)" style="shape=partialRectangle;top=0;left=0;right=0;bottom=0;html=1;align=left;verticalAlign=top;fillColor=none;spacingLeft=34;spacingRight=4;whiteSpace=wrap;overflow=hidden;rotatable=0;points=[[0,0.5],[1,0.5]];portConstraint=eastwest;dropTarget=0;" parent="HHwhpNUcEL4YKQArkE9e-118" vertex="1">
          <mxGeometry y="194" width="200" height="40" as="geometry" />
        </mxCell>
        <mxCell id="HHwhpNUcEL4YKQArkE9e-134" value="" style="shape=partialRectangle;top=0;left=0;bottom=0;html=1;fillColor=none;align=left;verticalAlign=top;spacingLeft=4;spacingRight=4;whiteSpace=wrap;overflow=hidden;rotatable=0;points=[];portConstraint=eastwest;part=1;" parent="HHwhpNUcEL4YKQArkE9e-133" vertex="1" connectable="0">
          <mxGeometry width="30" height="40" as="geometry" />
        </mxCell>
        <mxCell id="HHwhpNUcEL4YKQArkE9e-140" value="has" style="shape=rhombus;perimeter=rhombusPerimeter;whiteSpace=wrap;html=1;align=center;" parent="1" vertex="1">
          <mxGeometry x="320" y="840" width="120" height="60" as="geometry" />
        </mxCell>
        <mxCell id="HHwhpNUcEL4YKQArkE9e-141" value="" style="endArrow=none;html=1;rounded=0;exitX=1;exitY=0;exitDx=0;exitDy=0;entryX=0.393;entryY=0.949;entryDx=0;entryDy=0;entryPerimeter=0;" parent="1" source="HHwhpNUcEL4YKQArkE9e-140" target="HHwhpNUcEL4YKQArkE9e-13" edge="1">
          <mxGeometry relative="1" as="geometry">
            <mxPoint x="643" y="886" as="sourcePoint" />
            <mxPoint x="520" y="810" as="targetPoint" />
          </mxGeometry>
        </mxCell>
        <mxCell id="HHwhpNUcEL4YKQArkE9e-142" value="ORDERS" style="whiteSpace=wrap;html=1;align=center;fillColor=#C4C4C4;strokeColor=#36393d;" parent="1" vertex="1">
          <mxGeometry x="190" y="810" width="100" height="40" as="geometry" />
        </mxCell>
        <mxCell id="HHwhpNUcEL4YKQArkE9e-143" value="" style="endArrow=none;html=1;rounded=0;exitX=1;exitY=0.5;exitDx=0;exitDy=0;" parent="1" source="HHwhpNUcEL4YKQArkE9e-142" target="HHwhpNUcEL4YKQArkE9e-140" edge="1">
          <mxGeometry relative="1" as="geometry">
            <mxPoint x="320" y="845" as="sourcePoint" />
            <mxPoint x="430" y="800" as="targetPoint" />
          </mxGeometry>
        </mxCell>
        <mxCell id="HHwhpNUcEL4YKQArkE9e-144" value="1" style="resizable=0;html=1;whiteSpace=wrap;align=right;verticalAlign=bottom;" parent="1" connectable="0" vertex="1">
          <mxGeometry x="670.0024137620244" y="920.004704178175" as="geometry">
            <mxPoint x="-253" y="-73" as="offset" />
          </mxGeometry>
        </mxCell>
        <mxCell id="HHwhpNUcEL4YKQArkE9e-145" value="N" style="resizable=0;html=1;whiteSpace=wrap;align=right;verticalAlign=bottom;" parent="1" connectable="0" vertex="1">
          <mxGeometry x="500.00241376202433" y="890.004704178175" as="geometry">
            <mxPoint x="-144" y="-39" as="offset" />
          </mxGeometry>
        </mxCell>
      </root>
    </mxGraphModel>
  </diagram>
</mxfile>
